<?xml version="1.0" standalone="no"?>
<!DOCTYPE svg PUBLIC "-//W3C//DTD SVG 20010904//EN"
 "http://www.w3.org/TR/2001/REC-SVG-20010904/DTD/svg10.dtd">
<svg version="1.0" xmlns="http://www.w3.org/2000/svg"
 width="700.000000pt" height="700.000000pt" viewBox="0 0 700.000000 700.000000"
 preserveAspectRatio="xMidYMid meet">
<metadata>
Created by potrace 1.14, written by Peter Selinger 2001-2017
</metadata>
<g transform="translate(0.000000,700.000000) scale(0.100000,-0.100000)"
fill="#000000" stroke="none">
<path d="M2470 5720 c-11 -11 -20 -28 -20 -37 0 -22 67 -144 88 -160 38 -30
92 -1 92 48 0 26 -62 136 -88 157 -23 18 -49 15 -72 -8z"/>
<path d="M2843 5620 c-35 -14 -40 -56 -13 -108 13 -24 34 -49 46 -54 34 -16
73 -2 80 28 8 32 -21 99 -54 125 -28 21 -28 21 -59 9z"/>
<path d="M3118 5619 c-30 -17 -21 -65 29 -152 70 -125 89 -147 123 -147 36 0
65 38 55 70 -10 31 -125 224 -138 232 -17 11 -49 9 -69 -3z"/>
<path d="M512 5514 c-30 -20 -28 -49 8 -111 48 -83 97 -102 123 -46 9 21 7 33
-17 77 -50 92 -73 109 -114 80z"/>
<path d="M2315 5485 c-14 -13 -25 -30 -25 -37 0 -7 28 -60 63 -118 53 -90 66
-105 90 -108 34 -4 67 22 67 51 0 28 -107 215 -130 227 -28 15 -38 13 -65 -15z"/>
<path d="M820 5410 c-27 -27 -25 -38 10 -93 33 -52 64 -61 93 -29 22 24 21 34
-3 82 -31 60 -66 74 -100 40z"/>
<path d="M1072 5418 c-23 -23 -12 -63 46 -158 48 -80 61 -96 85 -98 34 -4 57
13 57 42 0 11 -26 66 -58 121 -51 88 -62 100 -87 103 -17 2 -36 -3 -43 -10z"/>
<path d="M2667 5382 c-27 -30 -20 -57 41 -162 63 -109 89 -131 127 -106 33 22
39 50 19 88 -37 72 -98 174 -113 186 -21 17 -55 15 -74 -6z"/>
<path d="M3004 5332 c-6 -4 -16 -17 -23 -30 -13 -24 -1 -50 87 -201 24 -41 24
-43 4 -32 -11 6 -28 11 -36 11 -21 0 -56 -36 -56 -58 0 -9 27 -64 60 -122 33
-58 60 -117 60 -131 0 -52 -70 -79 -108 -41 -10 10 -51 76 -91 145 -53 93 -79
129 -96 133 -36 9 -58 1 -71 -24 -19 -37 -21 -36 -64 40 -24 40 -50 79 -58 86
-37 29 -92 3 -92 -44 0 -13 56 -121 125 -240 69 -119 133 -230 141 -246 15
-29 15 -29 -6 -18 -27 14 -57 5 -76 -26 -15 -22 -15 -27 3 -61 10 -21 181
-319 379 -663 199 -344 575 -996 836 -1450 262 -454 498 -862 524 -908 45 -77
51 -83 79 -80 28 3 38 17 131 178 55 96 194 336 307 534 114 197 207 364 207
371 0 6 -39 79 -86 161 -48 82 -172 298 -277 479 -104 182 -193 332 -197 335
-3 3 -17 24 -30 47 -13 24 -26 41 -28 38 -6 -6 19 -57 32 -66 17 -13 -4 -26
-34 -21 -23 3 -30 9 -30 27 0 13 6 25 13 28 9 3 9 9 -1 26 -10 17 -10 21 0 19
7 -2 12 2 11 8 -2 9 -389 682 -890 1547 -63 109 -126 205 -139 214 -31 20 -71
5 -80 -31 -7 -30 -3 -37 185 -360 83 -143 151 -270 151 -283 0 -47 -55 -77
-99 -54 -10 6 -103 157 -207 337 -104 179 -199 333 -210 341 -31 20 -72 -1
-82 -41 l-8 -31 -43 73 c-51 85 -82 108 -117 84z m339 -481 c29 -11 52 -61 43
-96 -14 -54 -94 -58 -121 -5 -21 40 -19 57 10 85 27 28 33 29 68 16z m179
-293 c27 -23 118 -189 118 -217 0 -38 -30 -63 -72 -59 -30 3 -38 11 -90 98
-64 106 -73 148 -36 174 27 19 59 20 80 4z m-424 -44 c25 -7 72 -79 72 -110 0
-36 -29 -64 -64 -64 -35 0 -54 15 -80 67 -23 45 -20 68 10 92 30 23 30 23 62
15z m814 -121 c37 -43 158 -264 158 -289 0 -57 -68 -86 -108 -46 -30 30 -162
267 -162 291 0 50 79 81 112 44z m-259 -299 c44 -74 45 -107 5 -137 -41 -31
-74 -11 -120 69 -21 36 -38 73 -38 81 0 24 20 54 43 62 39 15 70 -6 110 -75z"/>
<path d="M382 5319 c-43 -16 -38 -52 20 -151 45 -79 58 -94 81 -96 35 -4 57
13 57 45 0 31 -98 200 -120 206 -8 2 -26 0 -38 -4z"/>
<path d="M677 5212 c-9 -10 -17 -25 -17 -33 0 -16 83 -163 108 -192 22 -25 63
-18 81 14 14 25 12 31 -45 125 -47 80 -64 100 -85 102 -15 2 -32 -5 -42 -16z"/>
<path d="M972 5164 c-32 -22 -27 -50 23 -134 25 -41 45 -78 45 -81 0 -3 -14
-6 -30 -6 -69 0 -69 -45 -1 -159 55 -92 61 -121 33 -147 -46 -42 -73 -18 -165
142 -43 75 -64 102 -82 107 -28 7 -53 -9 -64 -40 -6 -16 -15 -6 -52 55 -37 60
-51 75 -73 77 -34 4 -56 -13 -56 -43 0 -13 47 -104 104 -202 57 -98 111 -193
120 -211 l17 -33 -25 7 c-30 7 -70 -28 -63 -57 3 -10 127 -229 275 -486 148
-258 545 -945 882 -1528 337 -583 618 -1067 626 -1075 12 -12 16 -12 28 0 20
22 559 960 559 973 0 12 -440 775 -503 872 -17 28 -279 475 -581 995 -333 573
-556 948 -568 954 -26 11 -71 -17 -71 -45 0 -11 66 -133 147 -272 81 -138 149
-262 151 -275 10 -51 -59 -82 -95 -43 -10 11 -78 125 -152 253 -195 338 -195
338 -231 338 -25 0 -33 -6 -44 -31 l-13 -31 -32 56 c-28 49 -63 86 -81 86 -3
0 -16 -7 -28 -16z m322 -433 c25 -28 18 -82 -13 -97 -45 -23 -92 22 -82 76 7
40 67 53 95 21z m142 -253 c24 -27 89 -138 99 -167 13 -41 -30 -80 -75 -66
-22 7 -120 172 -120 203 0 22 34 52 60 52 9 0 25 -10 36 -22z m-341 -65 c43
-65 27 -117 -35 -111 -30 3 -39 10 -59 49 -24 45 -24 48 -8 73 27 40 70 36
102 -11z m678 -70 c18 -21 147 -243 147 -254 0 -5 -11 -20 -24 -36 -41 -47
-67 -28 -147 110 -38 65 -69 129 -69 142 0 25 33 55 61 55 9 0 23 -8 32 -17z
m-261 -210 c26 -31 68 -111 68 -129 0 -23 -29 -54 -51 -54 -35 0 -50 13 -84
75 -29 52 -34 67 -26 88 15 39 67 50 93 20z"/>
<path d="M5953 4202 c-17 -9 -100 -69 -185 -133 -145 -110 -331 -237 -425
-289 -24 -13 -43 -27 -43 -30 0 -6 253 -447 291 -507 7 -13 16 -23 19 -23 9 0
158 255 528 904 2 4 -10 5 -27 1 -28 -6 -31 -4 -31 17 0 32 -42 78 -71 78 -13
0 -38 -8 -56 -18z m80 -29 c-7 -2 -19 -2 -25 0 -7 3 -2 5 12 5 14 0 19 -2 13
-5z"/>
</g>
</svg>
